<svg xmlns="http://www.w3.org/2000/svg" viewBox="0 0 240 240" role="img" aria-labelledby="title desc">
  <title id="title">GIS Layers Logo C</title>
  <desc id="desc">Three clean stacked tiles with strong depth and minimal detailing.</desc>
  <defs>
    <linearGradient id="faceC1" x1="0%" y1="0%" x2="100%" y2="100%">
      <stop offset="0%" stop-color="#f8fbf8"/>
      <stop offset="100%" stop-color="#e7efe9"/>
    </linearGradient>
    <linearGradient id="faceC2" x1="0%" y1="0%" x2="100%" y2="100%">
      <stop offset="0%" stop-color="#dce9e0"/>
      <stop offset="100%" stop-color="#c2d6c9"/>
    </linearGradient>
    <linearGradient id="faceC3" x1="0%" y1="0%" x2="100%" y2="100%">
      <stop offset="0%" stop-color="#b9d0c0"/>
      <stop offset="100%" stop-color="#97b49f"/>
    </linearGradient>
  </defs>

  <g fill="none" stroke="#111111" stroke-linejoin="round" stroke-linecap="round">
    <polygon points="120,34 188,72 120,110 52,72" fill="url(#faceC1)" stroke-width="3"/>
    <polygon points="120,86 188,124 120,162 52,124" fill="url(#faceC2)" stroke-width="3"/>
    <polygon points="120,138 188,176 120,214 52,176" fill="url(#faceC3)" stroke-width="3"/>

    <path d="M52 72l68 38 68-38" stroke-width="2"/>
    <path d="M52 124l68 38 68-38" stroke-width="2"/>

    <path d="M120 34l-34 19" stroke-width="1.7" opacity="0.7"/>
    <path d="M120 34l34 19" stroke-width="1.7" opacity="0.7"/>
    <path d="M120 86l-34 19" stroke-width="1.7" opacity="0.7"/>
    <path d="M120 86l34 19" stroke-width="1.7" opacity="0.7"/>
    <path d="M120 138l-34 19" stroke-width="1.7" opacity="0.7"/>
    <path d="M120 138l34 19" stroke-width="1.7" opacity="0.7"/>
  </g>
</svg>
