<svg xmlns="http://www.w3.org/2000/svg" viewBox="0 0 120 120" role="img" aria-labelledby="title desc">
  <title id="title">Minimalistisches Globus-Logo</title>
  <desc id="desc">Ein reduzierter Globus mit Koordinatenlinien und Achsen.</desc>
  <g fill="none" stroke="#111111" stroke-linecap="round" stroke-linejoin="round">
    <circle cx="60" cy="60" r="30" stroke-width="3"/>
    <path d="M30 60h60" stroke-width="2.4"/>
    <path d="M60 30v60" stroke-width="2.4"/>
    <path d="M38 44c7 4 37 4 44 0" stroke-width="2"/>
    <path d="M38 76c7-4 37-4 44 0" stroke-width="2"/>
    <path d="M48 32c-6 7-10 17-10 28s4 21 10 28" stroke-width="2"/>
    <path d="M72 32c6 7 10 17 10 28s-4 21-10 28" stroke-width="2"/>
    <path d="M14 60h14" stroke-width="2.2"/>
    <path d="M92 60h14" stroke-width="2.2"/>
    <path d="M60 14v14" stroke-width="2.2"/>
    <path d="M60 92v14" stroke-width="2.2"/>
  </g>
</svg>
